<?xml version="1.0" encoding="utf-8"?>
<!-- Generated by IcoMoon.io -->
<!DOCTYPE svg PUBLIC "-//W3C//DTD SVG 1.1//EN" "http://www.w3.org/Graphics/SVG/1.1/DTD/svg11.dtd">
<svg version="1.1" xmlns="http://www.w3.org/2000/svg" xmlns:xlink="http://www.w3.org/1999/xlink" width="32" height="32" viewBox="0 0 32 32">
<path fill="#0dc400" d="M17.064 0c-5.533 0-9.019 1.143-9.018 2.555 0 0.77 1.043 1.458 2.883 1.927v10.646c-2.894 0.541-4.564 1.474-4.564 2.536 0 1.532 3.465 2.794 9.076 3l1.059 11.253h1.139l1.059-11.254c5.605-0.206 9.065-1.469 9.065-2.999 0-1.063-1.672-1.996-4.568-2.537v-10.644c1.843-0.469 2.888-1.158 2.888-1.928 0-1.412-3.485-2.556-9.018-2.556zM14.67 6.172l0.001 8.029c0 0.489-0.396 0.886-0.886 0.886s-0.886-0.397-0.886-0.886v-8.029c-0-0.489 0.396-0.885 0.885-0.886s0.887 0.397 0.886 0.886z"></path>
</svg>
