<?xml version="1.0" encoding="utf-8"?>
<!-- Generated by IcoMoon.io -->
<!DOCTYPE svg PUBLIC "-//W3C//DTD SVG 1.1//EN" "http://www.w3.org/Graphics/SVG/1.1/DTD/svg11.dtd">
<svg version="1.1" xmlns="http://www.w3.org/2000/svg" xmlns:xlink="http://www.w3.org/1999/xlink" width="32" height="32" viewBox="0 0 32 32">
<path fill="#0dc400" d="M24.842 14.087l-14.033 14.033h-7.016v-7.017l14.032-14.032 7.017 7.016zM11.45 24.426l-3.964-3.964-1.535 1.535v1.805h2.159v2.159h1.805l1.535-1.535zM18.365 9.938c-0.102 0-0.202 0.034-0.287 0.118l-9.141 9.141c-0.084 0.084-0.118 0.185-0.118 0.287 0 0.219 0.152 0.371 0.371 0.371 0.101 0 0.202-0.034 0.287-0.118l9.141-9.141c0.085-0.084 0.118-0.185 0.118-0.287-0-0.219-0.152-0.371-0.371-0.371zM28.721 10.208l-2.8 2.8-7.016-7.016 2.8-2.783c0.388-0.405 0.944-0.641 1.518-0.641s1.13 0.236 1.535 0.641l3.964 3.947c0.388 0.405 0.624 0.961 0.624 1.535s-0.236 1.131-0.624 1.519z"></path>
</svg>
