<?xml version="1.0" encoding="utf-8"?>
<!-- Generated by IcoMoon.io -->
<!DOCTYPE svg PUBLIC "-//W3C//DTD SVG 1.1//EN" "http://www.w3.org/Graphics/SVG/1.1/DTD/svg11.dtd">
<svg version="1.1" xmlns="http://www.w3.org/2000/svg" xmlns:xlink="http://www.w3.org/1999/xlink" width="32" height="32" viewBox="0 0 32 32">
<path fill="#0dc400" d="M16.001 28.69c-3.862 0-7.505-1.703-9.968-4.672-0.168-0.219-0.152-0.54 0.034-0.725l2.311-2.328c0.118-0.101 0.27-0.152 0.422-0.152 0.152 0.017 0.304 0.084 0.388 0.203 1.653 2.141 4.132 3.356 6.814 3.356 4.756 0 8.636-3.879 8.636-8.635s-3.88-8.636-8.636-8.636c-2.209 0-4.301 0.843-5.869 2.311l2.311 2.328c0.32 0.304 0.405 0.776 0.236 1.164-0.168 0.405-0.556 0.675-0.995 0.675l-7.556-0c-0.59 0-1.080-0.489-1.080-1.080v-7.556c0-0.439 0.27-0.826 0.675-0.995 0.388-0.169 0.86-0.084 1.164 0.236l2.193 2.176c2.378-2.243 5.6-3.576 8.922-3.576 7.135 0 12.953 5.819 12.953 12.953s-5.819 12.953-12.953 12.953z"></path>
</svg>
